<svg xmlns="http://www.w3.org/2000/svg" width="1200" height="900" viewBox="0 0 1200 900" role="img" aria-labelledby="title desc">
  <title id="title">Клубника в шоколаде berryGo</title>
  <desc id="desc">Плейсхолдер для стартовых карточек клубники в шоколаде.</desc>
  <rect width="1200" height="900" fill="#fff5f7"/>
  <circle cx="600" cy="430" r="290" fill="#fde2e7"/>
  <g transform="translate(320 170)">
    <path d="M280 120c88-72 235-26 248 94 12 114-100 236-248 346C132 450 20 328 32 214 45 94 192 48 280 120Z" fill="#c92f43"/>
    <path d="M280 120c60-49 150-43 203 6-26 214-126 331-203 434C132 450 20 328 32 214 45 94 192 48 280 120Z" fill="#e94a5d"/>
    <path d="M192 64c38 8 68 28 88 56 20-28 50-48 88-56-20 38-47 65-88 79-41-14-68-41-88-79Z" fill="#3f9b54"/>
    <path d="M95 260c90 38 165 50 237 42 72-8 132-36 189-86" fill="none" stroke="#4b211d" stroke-width="38" stroke-linecap="round" opacity=".88"/>
    <path d="M109 335c80 30 154 38 222 28 66-10 124-35 175-76" fill="none" stroke="#fff0d6" stroke-width="12" stroke-linecap="round" opacity=".9"/>
    <g fill="#ffd7b5" opacity=".9">
      <circle cx="160" cy="205" r="10"/><circle cx="245" cy="240" r="8"/><circle cx="350" cy="190" r="9"/>
      <circle cx="420" cy="275" r="8"/><circle cx="210" cy="380" r="9"/><circle cx="330" cy="435" r="8"/>
    </g>
  </g>
  <text x="600" y="780" text-anchor="middle" font-family="Arial, sans-serif" font-size="58" font-weight="700" fill="#c86052">berryGo</text>
  <text x="600" y="830" text-anchor="middle" font-family="Arial, sans-serif" font-size="32" fill="#6b3b42">Клубника в шоколаде</text>
</svg>
