<?xml version="1.0" encoding="UTF-8"?>
<!DOCTYPE svg PUBLIC "-//W3C//DTD SVG 1.1//EN" "http://www.w3.org/Graphics/SVG/1.1/DTD/svg11.dtd">
<!-- Creator: CorelDRAW 2021.5 -->
<svg xmlns="http://www.w3.org/2000/svg" xml:space="preserve" width="2953px" height="2953px" version="1.1" style="shape-rendering:geometricPrecision; text-rendering:geometricPrecision; image-rendering:optimizeQuality; fill-rule:evenodd; clip-rule:evenodd"
viewBox="0 0 2953 2953"
 xmlns:xlink="http://www.w3.org/1999/xlink"
 xmlns:xodm="http://www.corel.com/coreldraw/odm/2003">
 <defs>
  <style type="text/css">
   <![CDATA[
    .str1 {stroke:#B64A3B;stroke-width:9.85;stroke-miterlimit:10}
    .str0 {stroke:#B64A3B;stroke-width:118.13;stroke-miterlimit:10}
    .str2 {stroke:#B64A3B;stroke-width:100.01;stroke-linecap:round;stroke-miterlimit:22.9256}
    .fil5 {fill:none}
    .fil4 {fill:#FCDC97;fill-rule:nonzero}
    .fil3 {fill:#FCDC97;fill-rule:nonzero}
    .fil2 {fill:#FBDB94;fill-rule:nonzero}
    .fil1 {fill:#5A753A;fill-rule:nonzero}
    .fil0 {fill:#E26856;fill-rule:nonzero}
   ]]>
  </style>
 </defs>
 <g id="Layer_x0020_1">
  <metadata id="CorelCorpID_0Corel-Layer"/>
  <path class="fil0 str0" d="M2627.89 885.9c183.49,276.07 228.75,602.95 92.44,869.16 -347.95,679.51 -1367.63,1179.52 -1739.98,988.86 -372.32,-190.65 -562.69,-1310.27 -214.75,-1989.78 136.32,-266.21 428,-420.56 759.25,-433.05l1103.04 564.81z"/>
  <path class="fil1" d="M2743.71 951.08c-114.45,-72.72 -238.86,-128.52 -369.29,-165.6 88.2,114.41 121.43,261.91 90.84,403.1 -4.05,15.92 -20.25,25.54 -36.16,21.49 -7.91,-2.02 -14.64,-7.18 -18.64,-14.31 -60.7,-106.85 -139.28,-202.52 -232.29,-282.84 -27.23,56.49 -58.3,111.04 -93.01,163.27 -11.6,16.55 -34.42,20.56 -50.97,8.95 -8.41,-5.9 -13.95,-15.06 -15.29,-25.26 -13.22,-116.18 -58.46,-226.41 -130.7,-318.35l0 0c-164.76,-84.36 -378.37,-73.32 -487.68,-62.91 -16.32,1.87 -31.07,-9.85 -32.94,-26.17 -0.92,-8.11 1.52,-16.24 6.75,-22.49 96.67,-107.35 235.77,-166.6 380.16,-161.91 -106.34,-84.16 -224.31,-152.48 -350.23,-202.84 -14.64,-5.47 -22.06,-21.77 -16.59,-36.4 3.42,-9.13 11.29,-15.86 20.85,-17.81 127.89,-23.74 385.21,-32.97 670.88,173.17 68.86,-116.94 163.97,-216.25 277.79,-290.12 52.1,-24.95 114.56,-2.97 139.51,49.11 22.65,47.22 6.84,103.92 -36.95,132.64 -76.34,54.33 -141.43,122.95 -191.58,202.09 224.82,69.5 411.53,227.7 517.04,438.05 6.4,14.24 0.06,30.99 -14.18,37.4 -8.87,4.02 -19.21,3.16 -27.32,-2.26z"/>
  <path class="fil2 str1" d="M983.64 1016.67c-33.84,-17.33 -35.95,-109.72 -11.79,-156.91 20.61,-40.25 70.12,-56.23 110.37,-35.62 40.25,20.61 56.23,70.12 35.62,110.37 -24.17,47.19 -100.36,99.49 -134.2,82.16z"/>
  <path class="fil2 str1" d="M1425.22 1301.52c-33.85,-17.33 -35.95,-109.71 -11.79,-156.9 20.62,-40.25 70.13,-56.23 110.37,-35.63 40.24,20.61 56.23,70.13 35.62,110.38 -24.16,47.19 -100.36,99.48 -134.2,82.15z"/>
  <path class="fil3 str1" d="M1890.64 1539.84c-33.84,-17.33 -35.95,-109.71 -11.79,-156.9 20.61,-40.25 70.11,-56.24 110.38,-35.62 40.24,20.6 56.2,70.11 35.59,110.36 -24.17,47.19 -100.34,99.49 -134.18,82.16z"/>
  <path class="fil2 str1" d="M2379.87 1731.61c-33.84,-17.33 -35.95,-109.72 -11.79,-156.91 20.61,-40.25 70.13,-56.22 110.37,-35.62 40.27,20.63 56.23,70.13 35.62,110.37 -24.16,47.2 -100.36,99.49 -134.2,82.16z"/>
  <path class="fil2 str1" d="M907.66 1623.95c-33.84,-17.33 -35.96,-109.72 -11.79,-156.91 20.61,-40.25 70.12,-56.22 110.37,-35.61 40.24,20.6 56.22,70.11 35.62,110.36 -24.17,47.2 -100.36,99.49 -134.2,82.16z"/>
  <path class="fil3 str1" d="M1395.77 1932.63c-33.84,-17.33 -35.95,-109.72 -11.79,-156.91 20.61,-40.25 70.13,-56.22 110.38,-35.62 40.26,20.62 56.22,70.13 35.62,110.38 -24.17,47.19 -100.37,99.48 -134.21,82.15z"/>
  <path class="fil2 str1" d="M948.59 2232.35c-33.85,-17.33 -35.95,-109.71 -11.78,-156.91 20.61,-40.25 70.11,-56.23 110.36,-35.62 40.24,20.61 56.23,70.12 35.62,110.37 -24.17,47.2 -100.36,99.49 -134.2,82.16z"/>
  <path class="fil2 str1" d="M1414.01 2470.67c-33.84,-17.33 -35.95,-109.71 -11.79,-156.91 20.61,-40.25 70.11,-56.23 110.38,-35.61 40.23,20.6 56.2,70.1 35.59,110.35 -24.17,47.2 -100.34,99.5 -134.18,82.17z"/>
  <path class="fil4 str1" d="M1931.58 2148.25c-33.85,-17.33 -35.96,-109.72 -11.79,-156.92 20.6,-40.24 70.1,-56.23 110.37,-35.61 40.24,20.61 56.2,70.11 35.59,110.36 -24.16,47.19 -100.33,99.5 -134.17,82.17z"/>
  <line class="fil5 str2" x1="123.64" y1="860.67" x2="669.4" y2= "860.67" />
  <line class="fil5 str2" x1="73.64" y1="1340.05" x2="253.61" y2= "1340.05" />
  <line class="fil5 str2" x1="211.13" y1="1787.46" x2="511.32" y2= "1787.46" />
 </g>
</svg>
